#!OML:ASF X:\für Bonn\!DataBase\2005_08_12_Daniel\c3d\Daniel.ASF
:FULLY-SPECIFIED
:DEGREES
131
root -2.913 13.596 -0.965716 347.857 -86.8947 -362.528
lowerback 45.5995 -4.13458 4.92506
upperback 4.85557 -4.09249 -2.38055
thorax -16.2792 -2.40619 -3.0256
lowerneck 3.60086 1.31961 -2.81582
upperneck -3.47192 1.64107 0.723258
head -1.72307 0.839999 0.660478
rclavicle -1.09332e-014 -1.11319e-014
rhumerus 83.7527 -20.1415 -194.384
rradius 8.89721
rwrist 162.35
rhand -27.4273 13.7174
rfingers 7.12502
rthumb -0.832813 -16.2607
lclavicle -1.09332e-014 -1.11319e-014
lhumerus 63.2055 -3.3437 85.5494
lradius 10.7173
lwrist -60.2469
lhand -19.351 0.772049
lfingers 7.12502
lthumb 6.96632 30.6374
rfemur -37.5081 -26.7969 4.04134
rtibia 93.5706
rfoot -9.26217 24.1328
rtoes -4.66543
lfemur 140.628 160.751 -187.212
ltibia 91.0339
lfoot -13.963 -37.2296
ltoes 13.5527
132
root -2.91957 13.7662 -0.965816 349.227 -86.848 -363.637
lowerback 45.0843 -4.10901 4.95013
upperback 4.70956 -4.03502 -2.33199
thorax -16.2983 -2.37615 -3.02977
lowerneck 3.46038 1.30688 -2.93504
upperneck -3.20112 1.62594 0.796305
head -1.61309 0.830869 0.704601
rclavicle -7.25564e-015 -3.02153e-014
rhumerus 83.6758 -20.3324 -194.315
rradius 9.08662
rwrist 162.398
rhand -27.1344 13.8508
rfingers 7.12502
rthumb -0.549857 -16.1282
lclavicle -7.25564e-015 -3.02153e-014
lhumerus 62.9495 -3.33425 85.8318
lradius 10.6876
lwrist -60.2904
lhand -19.1181 0.780404
lfingers 7.12502
lthumb 7.19116 30.6382
rfemur -36.0815 -25.9599 4.41298
rtibia 91.2348
rfoot -9.60429 24.2952
rtoes -4.19911
lfemur 141.796 161.333 -187.442
ltibia 88.9951
lfoot -15.1238 -36.8604
ltoes 12.954
133
root -2.92661 13.9359 -0.966789 350.084 -86.7856 -364.236
lowerback 44.5463 -4.08401 4.92983
upperback 4.58091 -4.00388 -2.28583
thorax -16.287 -2.35481 -3.00075
lowerneck 3.38147 1.29477 -3.06879
upperneck -3.00312 1.60886 0.869203
head -1.53793 0.821247 0.750915
rclavicle -6.16232e-015 1.90833e-014
rhumerus 83.5371 -20.5142 -194.247
rradius 9.30596
rwrist 162.504
rhand -26.8796 13.9571
rfingers 7.12502
rthumb -0.30377 -16.0225
lclavicle -6.16232e-015 1.90833e-014
lhumerus 62.7181 -3.26001 86.1295
lradius 10.6645
lwrist -60.4267
lhand -18.8321 0.750257
lfingers 7.12502
lthumb 7.46721 30.5985
rfemur -34.6546 -25.1984 4.76736
rtibia 88.8657
rfoot -10.2379 24.4154
rtoes -4.02623
lfemur 142.941 161.92 -187.719
ltibia 86.9328
lfoot -16.2399 -36.3751
ltoes 12.3576
134
root -2.93567 14.1048 -0.967349 350.594 -86.7246 -364.48
lowerback 43.9975 -4.0417 4.89181
upperback 4.43874 -3.95782 -2.2336
thorax -16.2828 -2.32593 -2.96371
lowerneck 3.3455 1.29134 -3.21818
upperneck -2.80438 1.6015 0.9492
head -1.47082 0.816338 0.801711
rclavicle 3.20043e-014 3.57812e-015
rhumerus 83.4674 -20.7164 -194.163
rradius 9.46431
rwrist 162.644
rhand -26.6478 13.9724
rfingers 7.12502
rthumb -0.0799394 -16.0073
lclavicle 3.20043e-014 3.57812e-015
lhumerus 62.4376 -3.20373 86.4625
lradius 10.6796
lwrist -60.6906
lhand -18.5327 0.764769
lfingers 7.12502
lthumb 7.75617 30.6025
rfemur -33.2354 -24.4956 5.12154
rtibia 86.4648
rfoot -11.1185 24.4465
rtoes -4.19819
lfemur 144.068 162.499 -188.035
ltibia 84.8653
lfoot -17.313 -35.7711
ltoes 11.7145
135
root -2.9451 14.2713 -0.968108 351.191 -86.6675 -364.82
lowerback 43.4593 -4.01246 4.86575
upperback 4.29357 -3.92662 -2.20532
thorax -16.2862 -2.30468 -2.9517
lowerneck 3.35653 1.28798 -3.29352
upperneck -2.65461 1.59491 0.997451
head -1.42638 0.811794 0.829738
rclavicle 1.71949e-014 2.38542e-015
rhumerus 83.4164 -20.9442 -194.124
rradius 9.62884
rwrist 162.775
rhand -26.4239 13.9983
rfingers 7.12502
rthumb 0.136355 -15.9814
lclavicle 1.71949e-014 2.38542e-015
lhumerus 62.1469 -3.06264 86.9571
lradius 10.7001
lwrist -61.241
lhand -18.184 0.730554
lfingers 7.12502
lthumb 8.09277 30.5556
rfemur -31.8506 -23.8236 5.51538
rtibia 84.0588
rfoot -12.1101 24.3068
rtoes -4.78735
lfemur 145.178 163.084 -188.349
ltibia 82.7942
lfoot -18.2083 -35.0443
ltoes 11.0496
136
root -2.95661 14.4341 -0.968857 351.167 -86.6118 -364.525
lowerback 42.8969 -3.95921 4.78504
upperback 4.13889 -3.88819 -2.16157
thorax -16.2856 -2.2767 -2.89846
lowerneck 3.35951 1.28158 -3.37913
upperneck -2.47085 1.58317 1.02343
head -1.36949 0.804818 0.852609
rclavicle -1.19271e-015 1.35174e-014
rhumerus 83.438 -21.179 -194.05
rradius 9.66505
rwrist 162.898
rhand -26.1953 14.001
rfingers 7.12502
rthumb 0.357102 -15.9784
lclavicle -1.19271e-015 1.35174e-014
lhumerus 61.8194 -2.88957 87.4889
lradius 10.7407
lwrist -61.8552
lhand -17.8705 0.654366
lfingers 7.12502
lthumb 8.39534 30.4675
rfemur -30.5162 -23.2433 5.89628
rtibia 81.6665
rfoot -13.3067 23.983
rtoes -5.66173
lfemur 146.27 163.698 -188.715
ltibia 80.7232
lfoot -18.8302 -34.2292
ltoes 10.6241
137
root -2.96854 14.5933 -0.969467 351.437 -86.5611 -364.545
lowerback 42.3513 -3.91127 4.72875
upperback 3.99026 -3.84578 -2.12141
thorax -16.2803 -2.24886 -2.86327
lowerneck 3.39882 1.2731 -3.46798
upperneck -2.31261 1.56734 1.05875
head -1.32722 0.795692 0.878985
rclavicle 1.23246e-014 -6.75868e-015
rhumerus 83.4501 -21.3965 -193.986
rradius 9.72506
rwrist 163.049
rhand -26.0177 13.9413
rfingers 7.12502
rthumb 0.528698 -16.0378
lclavicle 1.23246e-014 -6.75868e-015
lhumerus 61.4908 -2.71112 88.0396
lradius 10.7968
lwrist -62.5886
lhand -17.5573 0.607228
lfingers 7.12502
lthumb 8.69756 30.408
rfemur -29.1746 -22.6801 6.30354
rtibia 79.2751
rfoot -14.4082 23.5208
rtoes -6.26339
lfemur 147.362 164.327 -189.048
ltibia 78.663
lfoot -19.2677 -33.357
ltoes 10.1574
138
root -2.98097 14.7457 -0.970677 351.008 -86.5046 -363.86
lowerback 41.795 -3.85773 4.62484
upperback 3.8448 -3.82205 -2.09947
thorax -16.2654 -2.22653 -2.81468
lowerneck 3.41329 1.274 -3.4844
upperneck -2.15783 1.56736 1.06363
head -1.28082 0.794357 0.883089
rclavicle -3.97569e-016 -1.07344e-014
rhumerus 83.451 -21.6115 -193.943
rradius 9.80992
rwrist 163.193
rhand -25.8527 13.9226
rfingers 7.12502
rthumb 0.687976 -16.056
lclavicle -3.97569e-016 -1.07344e-014
lhumerus 61.2298 -2.55313 88.4919
lradius 10.762
lwrist -63.2118
lhand -17.326 0.588395
lfingers 7.12502
lthumb 8.92072 30.3798
rfemur -27.8663 -22.1865 6.6789
rtibia 76.901
rfoot -15.559 22.9188
rtoes -7.08116
lfemur 148.415 164.997 -189.434
ltibia 76.6291
lfoot -19.7578 -32.4056
ltoes 9.61921
139
root -2.99554 14.8928 -0.972136 351.02 -86.4614 -363.623
lowerback 41.2466 -3.79646 4.52902
upperback 3.67943 -3.77803 -2.05308
thorax -16.2699 -2.19546 -2.7524
lowerneck 3.48502 1.27231 -3.50851
upperneck -2.00278 1.56044 1.04292
head -1.24394 0.789808 0.880466
rclavicle 6.65929e-015 -9.54166e-015
rhumerus 83.4592 -21.877 -193.872
rradius 9.87061
rwrist 163.364
rhand -25.7361 13.8504
rfingers 7.12502
rthumb 0.800598 -16.1279
lclavicle 6.65929e-015 -9.54166e-015
lhumerus 60.9461 -2.29385 89.1774
lradius 10.7072
lwrist -64.1172
lhand -17.0616 0.512997
lfingers 7.12502
lthumb 9.1759 30.2934
rfemur -26.5587 -21.6961 7.0882
rtibia 74.5189
rfoot -16.6605 22.1993
rtoes -7.75444
lfemur 149.459 165.688 -189.779
ltibia 74.6162
lfoot -20.2087 -31.4218
ltoes 9.03366
140
root -3.01059 15.0348 -0.974405 350.43 -86.4045 -362.796
lowerback 40.7043 -3.73779 4.40995
upperback 3.52584 -3.75383 -2.03784
thorax -16.2622 -2.17235 -2.70271
lowerneck 3.53131 1.27511 -3.49892
upperneck -1.84956 1.56246 1.03422
head -1.20322 0.789304 0.875733
rclavicle 1.73937e-014 -1.19271e-015
rhumerus 83.4969 -22.1249 -193.838
rradius 9.9207
rwrist 163.59
rhand -25.6454 13.7795
rfingers 7.12502
rthumb 0.888234 -16.1984
lclavicle 1.73937e-014 -1.19271e-015
lhumerus 60.7174 -2.09989 89.7221
lradius 10.59
lwrist -64.8471
lhand -16.8633 0.486617
lfingers 7.12502
lthumb 9.36727 30.2585
rfemur -25.2549 -21.1894 7.45988
rtibia 72.1475
rfoot -17.6832 21.3758
rtoes -8.29033
lfemur 150.502 166.448 -190.156
ltibia 72.6184
lfoot -20.5921 -30.3908
ltoes 8.36784
141
root -3.02692 15.1748 -0.977113 349.96 -86.3711 -362.091
lowerback 40.1564 -3.67118 4.2778
upperback 3.36969 -3.72238 -2.0092
thorax -16.2495 -2.14507 -2.63471
lowerneck 3.56665 1.27922 -3.49869
upperneck -1.68918 1.56541 1.00155
head -1.15822 0.789589 0.865089
rclavicle -1.3418e-014 9.93923e-015
rhumerus 83.4721 -22.3573 -193.79
rradius 10.0228
rwrist 163.821
rhand -25.5694 13.7704
rfingers 7.12502
rthumb 0.961602 -16.2072
lclavicle -1.3418e-014 9.93923e-015
lhumerus 60.4987 -1.92139 90.1693
lradius 10.4716
lwrist -65.4345
lhand -16.6676 0.524609
lfingers 7.12502
lthumb 9.55603 30.2879
rfemur -23.9691 -20.6646 7.8517
rtibia 69.7744
rfoot -18.697 20.3961
rtoes -8.80766
lfemur 151.534 167.225 -190.512
ltibia 70.6383
lfoot -20.9327 -29.3165
ltoes 7.78538
142
root -3.04393 15.3144 -0.979987 349.57 -86.3313 -361.481
lowerback 39.6108 -3.60164 4.15799
upperback 3.2161 -3.68198 -1.98556
thorax -16.2312 -2.11496 -2.58279
lowerneck 3.6395 1.27669 -3.48865
upperneck -1.55885 1.55879 0.977896
head -1.12902 0.785038 0.85575
rclavicle -1.88845e-014 -1.23246e-014
rhumerus 83.7754 -22.6681 -194.514
rradius 10.1308
rwrist 164.796
rhand -25.6363 13.7642
rfingers 7.12502
rthumb 0.896986 -16.2137
lclavicle -1.88845e-014 -1.23246e-014
lhumerus 60.2887 -1.71185 90.7248
lradius 10.3582
lwrist -66.117
lhand -16.472 0.500235
lfingers 7.12502
lthumb 9.74476 30.2548
rfemur -22.7011 -20.127 8.24153
rtibia 67.4201
rfoot -19.6343 19.2874
rtoes -9.32955
lfemur 152.578 168.053 -190.841
ltibia 68.6656
lfoot -21.1625 -28.2472
ltoes 7.27868
